<svg width="63" height="43" viewBox="0 0 63 43" fill="none" xmlns="http://www.w3.org/2000/svg">
<path d="M18.6023 26.7502H14.4692V28.9308H18.6023V26.7502Z" fill="black"/>
<path d="M28.6983 29.2263H14.4819V31.4069H28.6983V29.2263Z" fill="black"/>
<path d="M28.6648 26.7717H24.5317V28.9454H28.6648V26.7717Z" fill="black"/>
<path d="M2.38317 31.3591H5.471V29.508H5.8399V31.3591H8.93457V29.508H9.30347V31.3796H12.3981V29.508H12.5758V28.8567H12.3981V27.0673H12.5758V26.416H12.3981V24.3593H9.30347V26.416H8.93457V24.3113H5.8399V26.416H5.471V24.3113H2.38317V26.416H2.19873V27.0673H2.38317V28.8567H2.19873V29.508H2.38317V31.3591ZM9.5494 24.5787H12.1454V26.368H9.5494V24.5787ZM9.5494 27.0673H12.1454V28.8087H9.5494V27.0673ZM9.5494 29.508H12.1454V31.1328H9.5494V29.508ZM8.93457 27.0673H9.30347V28.8567H8.93457V27.0673ZM6.07901 24.5581H8.67497V26.3475H6.07901V24.5581ZM6.07901 27.0673H8.67497V28.7881H6.07901V27.0673ZM6.07901 29.508H8.67497V31.1054H6.07901V29.508ZM5.45734 27.0673H5.82625V28.8567H5.45734V27.0673ZM2.66327 24.5581H5.25922V26.3475H2.66327V24.5581ZM2.66327 27.0673H5.25922V28.7881H2.66327V27.0673ZM2.66327 29.508H5.25922V31.1054H2.66327V29.508Z" fill="black"/>
<path d="M23.635 26.7502H19.502V28.9308H23.635V26.7502Z" fill="black"/>
<path d="M56.7082 30.481V25.4627H43.4619V17.4553H38.7277L38.5706 0.425781H37.9762L37.7371 17.4553H34.4785V25.4627H31.1926V31.859H0L3.05368 42.4167H52.8894L63 30.481H56.7082ZM34.3009 31.0432H32.9346V29.6515H34.3009V31.0432ZM34.3009 28.7397H32.9346V27.3686H34.3009V28.7397ZM35.1343 19.2309H42.567V20.0536H35.1548L35.1343 19.2309ZM35.1343 20.7871H42.567V21.5961H35.1548L35.1343 20.7871ZM36.5006 31.0706H35.1343V29.6515H36.5006V31.0706ZM36.5006 28.7671H35.1343V27.396H36.5006V28.7671ZM38.755 31.0226H37.3887V29.6515H38.755V31.0226ZM38.755 28.7191H37.3887V27.348H38.755V28.7191ZM40.9821 31.0226H39.6158V29.6515H40.9821V31.0226ZM40.9821 28.7191H39.6158V27.348H40.9821V28.7191ZM43.3048 31.0226H41.9385V29.6515H43.3048V31.0226ZM43.3048 28.7191H41.9385V27.348H43.3048V28.7191ZM50.7306 32.6817C51.0312 32.6817 51.161 32.9422 51.161 33.2576C51.161 33.5729 51.0312 33.8403 50.7306 33.8403H50.0475C49.7469 33.8403 49.6171 33.5798 49.6171 33.2576C49.6171 32.9354 49.7469 32.6817 50.0475 32.6817H50.7306ZM48.606 27.3411H49.9723V28.7123H48.606V27.3411ZM45.5319 31.0226H44.1656V29.6515H45.5319V31.0226ZM45.5319 28.7191H44.1656V27.348H45.5319V28.7191ZM47.7521 31.0226H46.3858V29.6515H47.7521V31.0226ZM47.7521 28.7191H46.3858V27.348H47.7521V28.7191ZM48.6129 29.6515H49.9792V31.0226H48.6129V29.6515ZM51.4821 41.3678H49.2482V40.3806H51.4821V41.3678ZM52.5342 33.8266H51.851C51.5504 33.8266 51.4206 33.5661 51.4206 33.2439C51.4206 32.9216 51.5504 32.668 51.851 32.668H52.5342C52.8347 32.668 52.9645 32.9285 52.9645 33.2439C52.9645 33.5592 52.8347 33.8609 52.5342 33.8609V33.8266ZM54.3103 33.8266H53.6272C53.3266 33.8266 53.1968 33.5661 53.1968 33.2439C53.1968 32.9216 53.3266 32.668 53.6272 32.668H54.3103C54.6109 32.668 54.7475 32.9285 54.7475 33.2439C54.7475 33.5592 54.5836 33.8609 54.3103 33.8609V33.8266ZM56.0934 33.8266H55.4102C55.1096 33.8266 54.9798 33.5661 54.9798 33.2439C54.9798 32.9216 55.1096 32.668 55.4102 32.668H56.0934C56.3939 32.668 56.5306 32.9285 56.5306 33.2439C56.5306 33.5592 56.3939 33.8609 56.0934 33.8609V33.8266Z" fill="black"/>
</svg>
