<svg width="65" height="25" viewBox="0 0 65 25" fill="none" xmlns="http://www.w3.org/2000/svg">
<g clip-path="url(#clip0_1_112)">
<path d="M8.35724 20.8487C8.34356 20.813 8.32239 20.7809 8.29524 20.7545C8.28627 20.7451 8.27612 20.7371 8.26507 20.7305C8.38243 20.6524 8.5115 20.5945 8.64716 20.5591C8.64635 20.5723 8.64635 20.5854 8.64716 20.5985C8.64742 20.6368 8.65481 20.6745 8.66895 20.7099C8.5589 20.7401 8.45385 20.7869 8.35724 20.8487Z" fill="black"/>
<path d="M40.8099 20.8487C40.7956 20.8134 40.7745 20.7813 40.7479 20.7545C40.7386 20.7455 40.7285 20.7375 40.7177 20.7305C40.8349 20.6521 40.964 20.5942 41.0998 20.5591C41.099 20.5723 41.099 20.5854 41.0998 20.5985C41.1001 20.6368 41.1074 20.6745 41.1216 20.7099C41.0115 20.7401 40.9065 20.7869 40.8099 20.8487Z" fill="black"/>
<path d="M40.3053 21.5117H40.1528C40.1853 21.3853 40.2361 21.2646 40.3036 21.1537C40.3111 21.1641 40.3195 21.1739 40.3287 21.1828C40.355 21.21 40.3863 21.2316 40.4209 21.2462C40.3722 21.3297 40.3334 21.4188 40.3053 21.5117Z" fill="black"/>
<path d="M41.9728 20.8486C41.8773 20.7903 41.774 20.7464 41.6662 20.7184C41.6803 20.683 41.6877 20.6452 41.6879 20.607C41.6888 20.5939 41.6888 20.5807 41.6879 20.5676C41.8231 20.603 41.9516 20.6609 42.0684 20.739L42.0382 20.7629C42.0117 20.7874 41.9896 20.8164 41.9728 20.8486Z" fill="black"/>
<path d="M0.405384 0H47.6635C47.888 0 48.0707 0.128495 48.0707 0.287829V17.1635C48.0707 17.3228 47.888 17.4531 47.6635 17.4531H49.5823C49.5815 17.4376 49.5815 17.4222 49.5823 17.4068V7.78166H60.3813C60.2865 7.83483 60.1809 7.86475 60.0729 7.86904C60.031 7.86904 59.9891 7.92557 59.9405 7.92557C59.721 7.92557 55.823 7.92557 55.823 7.92557V11.4789L56.6056 12.4469H59.287C59.3715 12.444 59.4539 12.475 59.5164 12.5333C59.579 12.5915 59.6169 12.6724 59.6221 12.7587V17.1327C59.6221 17.304 59.4679 18.2086 59.287 18.2086H59.4311C59.6204 18.2086 59.7662 17.304 59.7662 17.1327V12.9283L60.3746 13.0431C60.3738 13.0363 60.3738 13.0294 60.3746 13.0225H60.5421H60.579L59.7629 12.8992V12.769C59.7581 12.6825 59.7203 12.6013 59.6577 12.543C59.595 12.4847 59.5124 12.4539 59.4277 12.4572C59.7627 12.3462 60.113 12.2918 60.4651 12.2961C60.4531 12.2397 60.4453 12.1824 60.4416 12.1248C60.4282 11.8766 60.4282 11.6278 60.4416 11.3795C60.4617 11.0369 60.6092 10.7919 60.7349 10.845L60.765 10.8553V10.7645H60.7449C60.6527 10.7537 60.5682 10.7064 60.5097 10.6327C60.4511 10.5591 60.4231 10.4649 60.4315 10.3704V8.65543C60.4231 8.56091 60.4511 8.46675 60.5097 8.3931C60.5682 8.31945 60.6527 8.27217 60.7449 8.26138C60.7341 8.21532 60.7093 8.17394 60.6741 8.14317C60.6389 8.1124 60.595 8.0938 60.5488 8.09005H60.1785C60.1785 8.02495 60.1785 7.95813 60.1785 7.89302H60.5539C60.6464 7.90257 60.7327 7.94471 60.7982 8.01223C60.8636 8.07975 60.904 8.16844 60.9125 8.26309H60.9226C61.015 8.27346 61.0997 8.32063 61.1583 8.39438C61.217 8.46813 61.2449 8.56253 61.2359 8.65714V10.3601C61.2449 10.4547 61.217 10.5491 61.1583 10.6229C61.0997 10.6966 61.015 10.7438 60.9226 10.7542V10.9049L61.3482 11.066C61.4739 11.1191 61.5476 11.3213 61.5376 11.5217C61.5292 11.6684 61.5292 11.8154 61.5376 11.962C61.5512 12.1059 61.5098 12.2496 61.422 12.3629C64.7887 13.0431 64.3295 13.5828 64.3295 13.5828L60.8321 13.0551C60.817 13.0781 60.7996 13.0993 60.7801 13.1185L64.3295 13.7935V14.1053C63.3575 14.0608 62.4291 14.0214 62.4308 14.0385L63.624 20.6414C63.6391 20.7374 63.4011 20.8299 63.1296 20.9036C62.8412 20.7225 62.5337 20.5754 62.2129 20.465V20.148C62.228 20.172 62.2431 20.1874 62.2599 20.1874H63.148C63.3274 20.1874 63.4463 20.1018 63.4597 19.963C63.4698 19.8602 63.4313 19.6666 63.1933 19.3274C62.8196 18.7963 62.523 18.5273 62.3302 18.5273C62.2836 18.5265 62.2385 18.5443 62.2046 18.577V18.1761C62.1899 18.0581 62.1306 17.9506 62.0395 17.8767C61.9484 17.8028 61.8326 17.7682 61.7169 17.7803H61.4806C61.3832 17.7746 61.2863 17.7992 61.2029 17.8509C61.1194 17.9026 61.0532 17.9789 61.0131 18.0698C61.1149 17.9771 61.2471 17.927 61.3834 17.9293H61.6298C61.745 17.9172 61.8604 17.9516 61.9512 18.0253C62.042 18.0989 62.101 18.2059 62.1157 18.3234V20.8676C62.1156 20.9038 62.1094 20.9398 62.0973 20.9738C62.1147 20.9572 62.1305 20.9389 62.1442 20.919V20.9413C62.1442 21.0732 62.1861 21.1794 62.2364 21.1794H63.0743C63.1078 21.1794 63.1363 21.1332 63.1531 21.0646H64.3295V21.4827H59.0859C59.0775 21.3713 59.0708 21.2599 59.0624 21.14H58.1541C57.9996 20.4 57.6014 19.7366 57.026 19.2606C56.4506 18.7847 55.7328 18.525 54.9927 18.525C54.2525 18.525 53.5348 18.7847 52.9594 19.2606C52.384 19.7366 51.9857 20.4 51.8312 21.14H45.6039V20.8779H44.5096C44.4912 20.8145 44.2096 20.2594 43.9281 19.706L43.8845 19.7026C43.3492 19.0437 42.5852 18.6221 41.7527 18.5263C40.9201 18.4305 40.0836 18.6678 39.4184 19.1886H34.701C34.5519 19.1886 34.4312 19.2554 34.4312 19.3359C34.4535 19.3342 34.4759 19.3342 34.4982 19.3359H39.2442C38.6242 19.8905 38.2336 20.6652 38.1515 21.5032H34.7513C34.6418 21.5103 34.5341 21.4728 34.4515 21.399C34.369 21.3252 34.3183 21.221 34.3106 21.1092V20.8796H32.7101V21.1092C32.6991 21.2238 32.6444 21.3293 32.5578 21.4031C32.4713 21.4768 32.3599 21.5128 32.2476 21.5032H26.1577C26.0454 21.5128 25.934 21.4768 25.8475 21.4031C25.7609 21.3293 25.7062 21.2238 25.6952 21.1092V20.8796H24.2137C22.3502 20.8796 22.0268 20.8659 21.0733 20.8402L20.4029 20.8796C20.367 20.756 20.3239 20.6347 20.2739 20.5164H20.2974C20.254 20.4659 20.2199 20.4079 20.1968 20.3451C19.9286 19.7894 19.5138 19.3215 18.999 18.9943C18.4843 18.6671 17.8903 18.4938 17.2842 18.4938C16.6781 18.4938 16.0841 18.6671 15.5694 18.9943C15.0547 19.3215 14.6398 19.7894 14.3717 20.3451H11.8462C11.6054 19.8506 11.2477 19.4255 10.8055 19.108C10.3634 18.7906 9.85081 18.591 9.31417 18.5272C8.77753 18.4634 8.23379 18.5375 7.73222 18.7427C7.23064 18.9479 6.78708 19.2779 6.44168 19.7026H4.1257V17.4531H3.47381V20.5249H5.94564C5.89566 20.6433 5.85258 20.7646 5.8166 20.8882H2.96771V17.4616H0.405384C0.180824 17.4616 -0.000160217 17.3314 -0.000160217 17.1721V0.287829C-0.000160217 0.128495 0.180824 0 0.405384 0ZM54.4539 16.1664C55.3035 16.1279 56.1513 16.2775 56.9391 16.605C57.3303 16.7682 57.6984 16.9843 58.0334 17.2475C58.3669 17.5083 58.6577 17.8218 58.8948 18.1761C59.1308 18.5295 59.3054 18.9219 59.411 19.3359C59.5145 19.7503 59.5557 20.1784 59.5333 20.6055H59.726C59.7406 20.1598 59.6892 19.7145 59.5735 19.2845C59.4553 18.855 59.266 18.4494 59.0138 18.0853C58.7615 17.7242 58.4549 17.4062 58.1055 17.143C57.7585 16.8809 57.3786 16.6677 56.976 16.509C56.1725 16.1925 55.3117 16.0569 54.4522 16.1116C53.5955 16.158 52.7591 16.396 52.0022 16.8089C52.7637 16.4143 53.6006 16.195 54.4539 16.1664ZM32.7101 20.5249H34.3106V19.7026H32.7101V20.5249ZM26.2029 19.3496C26.2213 19.3479 26.2398 19.3479 26.2582 19.3496H32.1806C32.3029 19.3496 32.4035 19.4165 32.4035 19.4987V19.3496C32.4035 19.2691 32.3029 19.2023 32.1806 19.2023H26.4258C26.3018 19.2023 26.2029 19.2691 26.2029 19.3496ZM25.7002 20.5249V19.7026H24.9075V20.3588H23.9289C22.0989 20.3588 22.0084 20.3588 20.6258 20.4016L25.7002 20.5249ZM47.1775 17.0265V16.7318L6.011 16.814L0.728821 17.0265H47.1775Z" fill="black"/>
<path d="M9.51679 20.8486C9.4214 20.79 9.31805 20.7461 9.21011 20.7184C9.22504 20.6833 9.23247 20.6453 9.2319 20.607C9.23273 20.5939 9.23273 20.5807 9.2319 20.5676C9.36689 20.6035 9.49534 20.6613 9.6123 20.739L9.58214 20.7629C9.55567 20.7874 9.53356 20.8164 9.51679 20.8486Z" fill="black"/>
<path d="M17.8677 20.8486C17.7721 20.7903 17.6688 20.7464 17.561 20.7184C17.5751 20.683 17.5825 20.6452 17.5828 20.607C17.5836 20.5939 17.5836 20.5807 17.5828 20.5676C17.7184 20.603 17.8475 20.6609 17.9648 20.739C17.9541 20.746 17.944 20.754 17.9347 20.7629C17.9071 20.7868 17.8844 20.8159 17.8677 20.8486Z" fill="black"/>
<path d="M16.7046 20.8487C16.6897 20.8137 16.6687 20.7818 16.6426 20.7545L16.6125 20.7305C16.7292 20.6524 16.8577 20.5945 16.9929 20.5591C16.992 20.5723 16.992 20.5854 16.9929 20.5985C16.9931 20.6368 17.0005 20.6745 17.0146 20.7099C16.9051 20.74 16.8006 20.7868 16.7046 20.8487Z" fill="black"/>
<path d="M64.1621 23.4376H58.4174V21.7261H65L64.1621 23.4376Z" fill="black"/>
<path d="M62.7862 14.7342C62.7862 14.6434 62.8917 14.5628 63.0241 14.5628H64.3296V14.8884H63.0241C62.8917 14.8884 62.7862 14.8164 62.7862 14.7342Z" fill="black"/>
<path d="M64.3296 15.5306H63.1398C63.0124 15.5306 62.9102 15.4569 62.9102 15.3593C62.9102 15.2616 63.0124 15.1879 63.1398 15.1879H64.3296V15.5306Z" fill="black"/>
<path d="M64.3296 16.1718H63.2504C63.128 16.1718 63.0292 16.0982 63.0292 16.0005C63.0292 15.9029 63.128 15.8292 63.2504 15.8292H64.3296V16.1718Z" fill="black"/>
<path d="M64.3296 16.8141H63.3559C63.331 16.8216 63.3046 16.823 63.279 16.8182C63.2534 16.8134 63.2293 16.8027 63.2085 16.7867C63.1877 16.7707 63.1708 16.75 63.1591 16.7262C63.1475 16.7025 63.1414 16.6762 63.1414 16.6496C63.1414 16.623 63.1475 16.5968 63.1591 16.573C63.1708 16.5492 63.1877 16.5285 63.2085 16.5126C63.2293 16.4966 63.2534 16.4858 63.279 16.4811C63.3046 16.4763 63.331 16.4777 63.3559 16.4852H64.3296V16.8141Z" fill="black"/>
<path d="M64.3296 17.4549H63.4582C63.4331 17.4629 63.4065 17.4647 63.3806 17.4602C63.3547 17.4558 63.3302 17.4452 63.3091 17.4292C63.2879 17.4133 63.2707 17.3925 63.2589 17.3686C63.247 17.3446 63.2409 17.3181 63.2409 17.2913C63.2409 17.2644 63.247 17.238 63.2589 17.214C63.2707 17.19 63.2879 17.1693 63.3091 17.1533C63.3302 17.1374 63.3547 17.1268 63.3806 17.1223C63.4065 17.1179 63.4331 17.1197 63.4582 17.1277H64.3296V17.4549Z" fill="black"/>
<path d="M64.3296 18.0974H63.557C63.5321 18.1048 63.5057 18.1062 63.4801 18.1015C63.4545 18.0967 63.4304 18.0859 63.4096 18.07C63.3888 18.054 63.3719 18.0333 63.3602 18.0095C63.3486 17.9858 63.3425 17.9595 63.3425 17.9329C63.3425 17.9063 63.3486 17.8801 63.3602 17.8563C63.3719 17.8325 63.3888 17.8118 63.4096 17.7959C63.4304 17.7799 63.4545 17.7691 63.4801 17.7644C63.5057 17.7596 63.5321 17.761 63.557 17.7685H64.3296V18.0974Z" fill="black"/>
<path d="M64.3296 18.738H63.6509C63.6259 18.7455 63.5996 18.7469 63.574 18.7421C63.5484 18.7374 63.5242 18.7266 63.5034 18.7106C63.4826 18.6947 63.4657 18.674 63.4541 18.6502C63.4424 18.6264 63.4364 18.6001 63.4364 18.5735C63.4364 18.547 63.4424 18.5207 63.4541 18.4969C63.4657 18.4731 63.4826 18.4524 63.5034 18.4365C63.5242 18.4205 63.5484 18.4097 63.574 18.405C63.5996 18.4002 63.6259 18.4016 63.6509 18.4091H64.3296V18.738Z" fill="black"/>
<path d="M64.3296 19.3788H63.7431C63.718 19.3868 63.6914 19.3886 63.6655 19.3842C63.6396 19.3797 63.6151 19.3691 63.594 19.3532C63.5728 19.3372 63.5556 19.3165 63.5438 19.2925C63.5319 19.2685 63.5258 19.2421 63.5258 19.2152C63.5258 19.1884 63.5319 19.1619 63.5438 19.1379C63.5556 19.114 63.5728 19.0932 63.594 19.0773C63.6151 19.0613 63.6396 19.0507 63.6655 19.0463C63.6914 19.0418 63.718 19.0436 63.7431 19.0516H64.3296V19.3788Z" fill="black"/>
<path d="M64.3296 20.0213H63.8268C63.8019 20.0288 63.7755 20.0302 63.7499 20.0254C63.7243 20.0206 63.7002 20.0099 63.6794 19.9939C63.6586 19.9779 63.6417 19.9573 63.63 19.9335C63.6184 19.9097 63.6123 19.8834 63.6123 19.8568C63.6123 19.8302 63.6184 19.804 63.63 19.7802C63.6417 19.7564 63.6586 19.7357 63.6794 19.7198C63.7002 19.7038 63.7243 19.693 63.7499 19.6883C63.7755 19.6835 63.8019 19.6849 63.8268 19.6924H64.3296V20.0213Z" fill="black"/>
<path d="M64.3296 20.6621H63.914C63.8889 20.6701 63.8623 20.6719 63.8364 20.6674C63.8106 20.663 63.786 20.6524 63.7649 20.6364C63.7438 20.6205 63.7266 20.5997 63.7147 20.5758C63.7029 20.5518 63.6967 20.5254 63.6967 20.4985C63.6967 20.4717 63.7029 20.4452 63.7147 20.4212C63.7266 20.3973 63.7438 20.3765 63.7649 20.3606C63.786 20.3446 63.8106 20.334 63.8364 20.3296C63.8623 20.3251 63.8889 20.3269 63.914 20.3349H64.3296V20.6621Z" fill="black"/>
<path d="M57.5393 3.17297C57.4121 3.24995 57.2666 3.28966 57.1187 3.28776C56.7534 3.28776 56.4484 3.06332 56.4484 2.78748C56.4484 2.51165 56.7467 2.2855 57.1187 2.2855C57.2719 2.28351 57.4225 2.32631 57.5527 2.40885C57.5377 2.48252 57.5343 3.12671 57.5393 3.17297Z" fill="black"/>
<path d="M50.3819 3.40099C52.5186 3.40099 54.6368 3.43183 56.8371 3.49351V3.32218C56.8807 3.33115 56.9251 3.33574 56.9695 3.33589C57.0175 3.33621 57.0654 3.33045 57.112 3.31876V3.50036H57.3918C57.448 3.50236 57.504 3.50808 57.5594 3.5175C57.6837 3.53263 57.8023 3.57914 57.9046 3.65284C59.3576 5.17936 60.1402 6.43348 60.3647 7.58479H49.5926C49.6177 6.6819 49.7501 4.05032 50.3819 3.40099ZM57.4069 4.20452C57.4069 4.21651 58.4325 5.63338 58.4778 5.72076C58.523 5.80813 58.5364 5.87838 59.0408 5.89208H59.0492C59.1079 5.89208 59.1263 5.87324 59.1364 5.85953C59.2285 5.73104 58.9437 5.26331 58.3554 4.57629C57.8678 4.00749 57.5678 3.89099 57.4019 3.89099C57.3347 3.8893 57.2694 3.9138 57.2192 3.95952C57.1354 4.03319 57.3952 4.1514 57.4069 4.20452Z" fill="black"/>
<path d="M48.6909 8.28513H48.9339C49.1468 8.28513 49.3193 8.46155 49.3193 8.67918V16.7452C49.3193 16.9629 49.1468 17.1393 48.9339 17.1393H48.6909C48.478 17.1393 48.3055 16.9629 48.3055 16.7452V8.67918C48.3055 8.46155 48.478 8.28513 48.6909 8.28513Z" fill="black"/>
<path d="M48.6926 3.14051H48.6691V2.13824H48.6926C48.6926 2.13824 55.545 3.14051 55.3305 3.14051H48.6926Z" fill="black"/>
<path d="M54.9938 18.6834C55.605 18.6834 56.2026 18.8687 56.7108 19.216C57.219 19.5632 57.6151 20.0567 57.8489 20.6341C58.0828 21.2115 58.1439 21.8468 58.0245 22.4596C57.9051 23.0725 57.6106 23.6355 57.1783 24.0772C56.7459 24.519 56.1952 24.8197 55.5956 24.9414C54.9961 25.0632 54.3747 25.0003 53.81 24.761C53.2454 24.5216 52.7629 24.1164 52.4235 23.5966C52.0842 23.0769 51.9032 22.4659 51.9036 21.841C51.9036 21.4262 51.9835 21.0154 52.1388 20.6322C52.2941 20.249 52.5218 19.9009 52.8088 19.6076C53.0957 19.3144 53.4364 19.0819 53.8113 18.9233C54.1862 18.7647 54.588 18.6832 54.9938 18.6834ZM54.9938 23.6673C55.3471 23.6673 55.6925 23.5602 55.9863 23.3595C56.28 23.1588 56.509 22.8736 56.6442 22.5399C56.7794 22.2062 56.8148 21.8389 56.7459 21.4847C56.6769 21.1304 56.5068 20.805 56.257 20.5495C56.0071 20.2941 55.6888 20.1202 55.3423 20.0497C54.9958 19.9792 54.6366 20.0154 54.3101 20.1536C53.9837 20.2919 53.7047 20.526 53.5084 20.8263C53.3121 21.1266 53.2073 21.4797 53.2073 21.841C53.2078 22.3252 53.3961 22.7895 53.7311 23.1319C54.066 23.4743 54.5201 23.6669 54.9938 23.6673Z" fill="black"/>
<path d="M54.9939 20.1135C55.328 20.1135 55.6546 20.2148 55.9324 20.4046C56.2102 20.5943 56.4267 20.8641 56.5545 21.1796C56.6824 21.4952 56.7158 21.8424 56.6506 22.1774C56.5855 22.5124 56.4246 22.8201 56.1883 23.0617C55.9521 23.3032 55.6511 23.4677 55.3234 23.5343C54.9958 23.6009 54.6561 23.5667 54.3474 23.436C54.0388 23.3053 53.775 23.084 53.5893 22.8C53.4037 22.516 53.3047 22.1821 53.3047 21.8405C53.3055 21.3828 53.4838 20.944 53.8004 20.6203C54.117 20.2967 54.5461 20.1144 54.9939 20.1135ZM54.9939 23.3208C55.2802 23.3204 55.5599 23.2333 55.7978 23.0705C56.0357 22.9076 56.221 22.6763 56.3304 22.4058C56.4397 22.1353 56.4681 21.8377 56.4121 21.5507C56.356 21.2636 56.218 21 56.0154 20.7932C55.8129 20.5863 55.5549 20.4455 55.2741 20.3886C54.9932 20.3316 54.7022 20.361 54.4377 20.4731C54.1733 20.5852 53.9472 20.7749 53.7882 21.0183C53.6292 21.2617 53.5443 21.5478 53.5443 21.8405C53.5443 22.035 53.5818 22.2277 53.6547 22.4074C53.7275 22.5871 53.8343 22.7503 53.969 22.8878C54.1036 23.0253 54.2634 23.1343 54.4393 23.2086C54.6151 23.2829 54.8036 23.321 54.9939 23.3208Z" fill="black"/>
<path d="M54.9934 20.8542C55.1843 20.8545 55.3707 20.9127 55.5293 21.0213C55.6878 21.1299 55.8112 21.2842 55.884 21.4645C55.9568 21.6449 55.9757 21.8433 55.9383 22.0346C55.9008 22.2259 55.8088 22.4016 55.6737 22.5394C55.5387 22.6772 55.3667 22.7711 55.1795 22.809C54.9923 22.8469 54.7983 22.8273 54.622 22.7526C54.4457 22.6778 54.295 22.5513 54.189 22.3891C54.0831 22.2268 54.0265 22.0361 54.0265 21.841C54.0269 21.5791 54.129 21.3281 54.3103 21.1431C54.4916 20.9581 54.7373 20.8542 54.9934 20.8542Z" fill="black"/>
<path d="M54.9937 20.7393C54.9681 20.7397 54.943 20.7322 54.9216 20.7179C54.9001 20.7036 54.8833 20.6832 54.8733 20.6591C54.8633 20.635 54.8605 20.6084 54.8653 20.5827C54.8701 20.557 54.8822 20.5334 54.9002 20.5147C54.9182 20.4961 54.9412 20.4834 54.9662 20.4782C54.9913 20.4729 55.0174 20.4754 55.041 20.4854C55.0647 20.4953 55.085 20.5122 55.0992 20.5339C55.1135 20.5557 55.1211 20.5812 55.1211 20.6074C55.1213 20.6246 55.1182 20.6418 55.1119 20.6578C55.1056 20.6738 55.0962 20.6883 55.0844 20.7006C55.0725 20.7129 55.0584 20.7226 55.0429 20.7293C55.0273 20.7359 55.0106 20.7393 54.9937 20.7393Z" fill="black"/>
<path d="M54.994 22.9439C55.0196 22.9439 55.0446 22.9517 55.0659 22.9663C55.0871 22.9808 55.1037 23.0016 55.1134 23.0258C55.1231 23.05 55.1256 23.0766 55.1204 23.1022C55.1153 23.1278 55.1029 23.1514 55.0847 23.1697C55.0664 23.1881 55.0433 23.2005 55.0181 23.2054C54.993 23.2103 54.967 23.2075 54.9435 23.1972C54.9199 23.187 54.8999 23.1698 54.8859 23.1479C54.8719 23.126 54.8646 23.1003 54.865 23.0741C54.865 23.0569 54.8683 23.0398 54.8748 23.0239C54.8813 23.008 54.8909 22.9936 54.9029 22.9814C54.9149 22.9693 54.9291 22.9598 54.9448 22.9533C54.9604 22.9469 54.9772 22.9437 54.994 22.9439Z" fill="black"/>
<path d="M55.7547 21.0631C55.7367 21.0447 55.7244 21.0212 55.7195 20.9956C55.7145 20.97 55.7171 20.9435 55.7269 20.9194C55.7366 20.8953 55.7532 20.8747 55.7744 20.8602C55.7956 20.8457 55.8205 20.838 55.8461 20.838C55.8716 20.838 55.8965 20.8457 55.9177 20.8602C55.9389 20.8747 55.9555 20.8953 55.9653 20.9194C55.975 20.9435 55.9776 20.97 55.9726 20.9956C55.9677 21.0212 55.9554 21.0447 55.9374 21.0631C55.9254 21.0754 55.9112 21.0852 55.8955 21.0918C55.8798 21.0984 55.863 21.1019 55.8461 21.1019C55.8291 21.1019 55.8123 21.0984 55.7966 21.0918C55.781 21.0852 55.7667 21.0754 55.7547 21.0631Z" fill="black"/>
<path d="M54.2313 22.6149C54.2494 22.6333 54.2616 22.6568 54.2666 22.6824C54.2715 22.708 54.269 22.7345 54.2592 22.7586C54.2494 22.7827 54.2329 22.8033 54.2117 22.8178C54.1905 22.8323 54.1655 22.84 54.14 22.84C54.1145 22.84 54.0896 22.8323 54.0683 22.8178C54.0471 22.8033 54.0306 22.7827 54.0208 22.7586C54.011 22.7345 54.0085 22.708 54.0134 22.6824C54.0184 22.6568 54.0307 22.6333 54.0487 22.6149C54.0607 22.6026 54.0749 22.5929 54.0906 22.5862C54.1062 22.5796 54.123 22.5761 54.14 22.5761C54.157 22.5761 54.1738 22.5796 54.1894 22.5862C54.2051 22.5929 54.2194 22.6026 54.2313 22.6149Z" fill="black"/>
<path d="M56.2006 21.7088C56.2261 21.7088 56.251 21.7166 56.2722 21.7311C56.2935 21.7456 56.31 21.7662 56.3198 21.7903C56.3295 21.8144 56.3321 21.8409 56.3271 21.8665C56.3221 21.8921 56.3098 21.9156 56.2918 21.934C56.2737 21.9525 56.2508 21.9651 56.2257 21.9701C56.2007 21.9752 56.1747 21.9726 56.1512 21.9626C56.1276 21.9527 56.1074 21.9357 56.0933 21.914C56.0791 21.8924 56.0715 21.8668 56.0715 21.8408C56.0715 21.8058 56.0851 21.7722 56.1093 21.7475C56.1335 21.7227 56.1663 21.7088 56.2006 21.7088Z" fill="black"/>
<path d="M53.7872 21.9727C53.7616 21.9731 53.7365 21.9656 53.715 21.9513C53.6936 21.937 53.6768 21.9166 53.6668 21.8925C53.6568 21.8684 53.654 21.8418 53.6587 21.8161C53.6635 21.7904 53.6757 21.7668 53.6937 21.7481C53.7116 21.7295 53.7346 21.7168 53.7597 21.7116C53.7848 21.7063 53.8108 21.7088 53.8345 21.7188C53.8582 21.7287 53.8784 21.7456 53.8927 21.7673C53.9069 21.7891 53.9145 21.8146 53.9145 21.8408C53.9148 21.858 53.9116 21.8752 53.9053 21.8912C53.899 21.9072 53.8897 21.9217 53.8778 21.934C53.866 21.9463 53.8519 21.956 53.8363 21.9626C53.8207 21.9693 53.804 21.9727 53.7872 21.9727Z" fill="black"/>
<path d="M55.8465 22.8449C55.7753 22.8449 55.7175 22.7858 55.7175 22.7129C55.7175 22.6401 55.7753 22.581 55.8465 22.581C55.9178 22.581 55.9756 22.6401 55.9756 22.7129C55.9756 22.7858 55.9178 22.8449 55.8465 22.8449Z" fill="black"/>
<path d="M54.2313 20.8761C54.2494 20.8946 54.2616 20.9181 54.2666 20.9437C54.2715 20.9693 54.269 20.9958 54.2592 21.0199C54.2494 21.044 54.2329 21.0645 54.2117 21.079C54.1905 21.0935 54.1655 21.1012 54.14 21.1012C54.1145 21.1012 54.0896 21.0935 54.0683 21.079C54.0471 21.0645 54.0306 21.044 54.0208 21.0199C54.011 20.9958 54.0085 20.9693 54.0134 20.9437C54.0184 20.9181 54.0307 20.8946 54.0487 20.8761C54.0607 20.8639 54.0749 20.8541 54.0906 20.8475C54.1062 20.8408 54.123 20.8374 54.14 20.8374C54.157 20.8374 54.1738 20.8408 54.1894 20.8475C54.2051 20.8541 54.2194 20.8639 54.2313 20.8761Z" fill="black"/>
<path d="M41.391 18.6834C42.0024 18.6831 42.6 18.8681 43.1085 19.2151C43.6169 19.5621 44.0133 20.0555 44.2474 20.6329C44.4815 21.2102 44.5428 21.8456 44.4236 22.4586C44.3044 23.0716 44.0101 23.6347 43.5778 24.0766C43.1455 24.5186 42.5948 24.8195 41.9952 24.9413C41.3956 25.0632 40.7741 25.0005 40.2094 24.7611C39.6446 24.5218 39.162 24.1166 38.8226 23.5968C38.4832 23.077 38.3022 22.466 38.3025 21.841C38.3025 21.0035 38.6279 20.2004 39.2071 19.6082C39.7863 19.0161 40.5719 18.6834 41.391 18.6834ZM41.391 23.6673C41.7443 23.6673 42.0897 23.5602 42.3835 23.3595C42.6773 23.1588 42.9063 22.8736 43.0415 22.5399C43.1767 22.2062 43.212 21.8389 43.1431 21.4847C43.0742 21.1304 42.9041 20.805 42.6542 20.5495C42.4044 20.2941 42.0861 20.1202 41.7395 20.0497C41.393 19.9792 41.0338 20.0154 40.7074 20.1536C40.381 20.2919 40.102 20.526 39.9057 20.8263C39.7094 21.1266 39.6046 21.4797 39.6046 21.841C39.605 22.3252 39.7934 22.7895 40.1283 23.1319C40.4632 23.4743 40.9174 23.6669 41.391 23.6673Z" fill="black"/>
<path d="M41.3907 20.1135C41.7245 20.1149 42.0505 20.2173 42.3274 20.4079C42.6043 20.5985 42.8197 20.8686 42.9466 21.1843C43.0734 21.5 43.1059 21.847 43.04 22.1816C42.974 22.5161 42.8126 22.8232 42.5761 23.064C42.3396 23.3049 42.0386 23.4687 41.7111 23.5347C41.3836 23.6008 41.0443 23.5662 40.736 23.4353C40.4278 23.3044 40.1643 23.0831 39.979 22.7992C39.7937 22.5154 39.6948 22.1817 39.6948 21.8405C39.6952 21.6132 39.7394 21.3883 39.8249 21.1785C39.9104 20.9688 40.0354 20.7783 40.1929 20.6179C40.3504 20.4575 40.5372 20.3304 40.7427 20.2439C40.9483 20.1574 41.1684 20.113 41.3907 20.1135ZM41.3907 23.3207C41.6771 23.3207 41.957 23.2339 42.1951 23.0713C42.4332 22.9086 42.6188 22.6774 42.7284 22.4069C42.838 22.1365 42.8667 21.8388 42.8108 21.5517C42.7549 21.2645 42.617 21.0008 42.4145 20.7938C42.2121 20.5867 41.9541 20.4458 41.6732 20.3887C41.3923 20.3315 41.1012 20.3608 40.8366 20.4729C40.5721 20.5849 40.3459 20.7747 40.1868 21.0181C40.0277 21.2615 39.9428 21.5477 39.9428 21.8405C39.9433 22.2329 40.0959 22.6092 40.3674 22.8867C40.6388 23.1642 41.0068 23.3203 41.3907 23.3207Z" fill="black"/>
<path d="M41.3912 20.8542C41.5821 20.8542 41.7687 20.912 41.9274 21.0205C42.0862 21.1289 42.2099 21.283 42.283 21.4634C42.356 21.6437 42.3751 21.8421 42.3379 22.0335C42.3007 22.2249 42.2087 22.4008 42.0737 22.5388C41.9387 22.6768 41.7667 22.7708 41.5795 22.8089C41.3922 22.847 41.1982 22.8274 41.0218 22.7527C40.8454 22.678 40.6946 22.5515 40.5886 22.3893C40.4825 22.227 40.4259 22.0362 40.4259 21.841C40.4263 21.5794 40.5282 21.3287 40.7091 21.1437C40.89 20.9587 41.1353 20.8546 41.3912 20.8542Z" fill="black"/>
<path d="M41.391 20.7393C41.3655 20.7393 41.3405 20.7315 41.3193 20.717C41.2981 20.7025 41.2815 20.6819 41.2718 20.6578C41.262 20.6337 41.2594 20.6072 41.2644 20.5816C41.2694 20.556 41.2817 20.5325 41.2997 20.5141C41.3178 20.4956 41.3408 20.4831 41.3658 20.478C41.3908 20.4729 41.4168 20.4755 41.4404 20.4855C41.4639 20.4955 41.4841 20.5124 41.4983 20.5341C41.5125 20.5558 41.52 20.5813 41.52 20.6074C41.52 20.6423 41.5064 20.6759 41.4822 20.7006C41.458 20.7254 41.4252 20.7393 41.391 20.7393Z" fill="black"/>
<path d="M41.3909 22.9442C41.409 22.942 41.4273 22.9439 41.4446 22.9495C41.462 22.9551 41.478 22.9644 41.4915 22.9768C41.5051 22.9891 41.516 23.0043 41.5234 23.0213C41.5308 23.0382 41.5347 23.0566 41.5347 23.0752C41.5347 23.0938 41.5308 23.1122 41.5234 23.1292C41.516 23.1461 41.5051 23.1613 41.4915 23.1737C41.478 23.186 41.462 23.1953 41.4446 23.201C41.4273 23.2066 41.409 23.2084 41.3909 23.2063C41.3729 23.2084 41.3546 23.2066 41.3373 23.201C41.3199 23.1953 41.3039 23.186 41.2904 23.1737C41.2768 23.1613 41.2659 23.1461 41.2585 23.1292C41.2511 23.1122 41.2472 23.0938 41.2472 23.0752C41.2472 23.0566 41.2511 23.0382 41.2585 23.0213C41.2659 23.0043 41.2768 22.9891 41.2904 22.9768C41.3039 22.9644 41.3199 22.9551 41.3373 22.9495C41.3546 22.9439 41.3729 22.942 41.3909 22.9442Z" fill="black"/>
<path d="M42.1537 21.0631C42.1356 21.0447 42.1234 21.0212 42.1184 20.9956C42.1135 20.97 42.116 20.9435 42.1258 20.9194C42.1356 20.8953 42.1521 20.8747 42.1733 20.8602C42.1945 20.8457 42.2195 20.838 42.245 20.838C42.2705 20.838 42.2954 20.8457 42.3167 20.8602C42.3379 20.8747 42.3544 20.8953 42.3642 20.9194C42.374 20.9435 42.3765 20.97 42.3716 20.9956C42.3666 21.0212 42.3543 21.0447 42.3363 21.0631C42.3243 21.0754 42.3101 21.0852 42.2944 21.0918C42.2788 21.0984 42.262 21.1019 42.245 21.1019C42.228 21.1019 42.2112 21.0984 42.1955 21.0918C42.1799 21.0852 42.1656 21.0754 42.1537 21.0631Z" fill="black"/>
<path d="M40.538 22.8465C40.4667 22.8465 40.4089 22.7875 40.4089 22.7146C40.4089 22.6418 40.4667 22.5827 40.538 22.5827C40.6092 22.5827 40.667 22.6418 40.667 22.7146C40.667 22.7875 40.6092 22.8465 40.538 22.8465Z" fill="black"/>
<path d="M42.5975 21.7088C42.623 21.7088 42.648 21.7166 42.6692 21.7311C42.6904 21.7456 42.707 21.7662 42.7167 21.7903C42.7265 21.8144 42.7291 21.8409 42.7241 21.8665C42.7191 21.8921 42.7068 21.9156 42.6888 21.934C42.6707 21.9525 42.6477 21.9651 42.6227 21.9701C42.5977 21.9752 42.5717 21.9726 42.5481 21.9626C42.5246 21.9527 42.5044 21.9357 42.4902 21.914C42.4761 21.8924 42.4685 21.8668 42.4685 21.8408C42.4685 21.8058 42.4821 21.7722 42.5063 21.7475C42.5305 21.7227 42.5633 21.7088 42.5975 21.7088Z" fill="black"/>
<path d="M40.3135 21.8408C40.3135 21.8757 40.2999 21.9093 40.2757 21.934C40.2515 21.9588 40.2187 21.9727 40.1844 21.9727C40.1502 21.9727 40.1174 21.9588 40.0932 21.934C40.069 21.9093 40.0554 21.8757 40.0554 21.8408C40.0554 21.8058 40.069 21.7722 40.0932 21.7475C40.1174 21.7227 40.1502 21.7088 40.1844 21.7088C40.2187 21.7088 40.2515 21.7227 40.2757 21.7475C40.2999 21.7722 40.3135 21.8058 40.3135 21.8408Z" fill="black"/>
<path d="M42.244 22.8449C42.1727 22.8449 42.115 22.7858 42.115 22.7129C42.115 22.6401 42.1727 22.581 42.244 22.581C42.3153 22.581 42.373 22.6401 42.373 22.7129C42.373 22.7858 42.3153 22.8449 42.244 22.8449Z" fill="black"/>
<path d="M40.4476 21.0629C40.4356 21.0507 40.4261 21.0361 40.4196 21.0201C40.4131 21.0041 40.4098 20.9869 40.4098 20.9696C40.4098 20.9522 40.4131 20.9351 40.4196 20.919C40.4261 20.903 40.4356 20.8885 40.4476 20.8762C40.4595 20.864 40.4736 20.8543 40.4891 20.8476C40.5046 20.841 40.5213 20.8376 40.5381 20.8376C40.555 20.8376 40.5716 20.841 40.5872 20.8476C40.6027 20.8543 40.6168 20.864 40.6286 20.8762C40.6406 20.8885 40.6502 20.903 40.6567 20.919C40.6632 20.9351 40.6665 20.9522 40.6665 20.9696C40.6665 20.9869 40.6632 21.0041 40.6567 21.0201C40.6502 21.0361 40.6406 21.0507 40.6286 21.0629C40.6168 21.0752 40.6027 21.0849 40.5872 21.0915C40.5716 21.0981 40.555 21.1015 40.5381 21.1015C40.5213 21.1015 40.5046 21.0981 40.4891 21.0915C40.4736 21.0849 40.4595 21.0752 40.4476 21.0629Z" fill="black"/>
<path d="M8.93539 18.6834C9.54658 18.6838 10.1439 18.8694 10.6519 19.2168C11.1599 19.5642 11.5558 20.0579 11.7893 20.6353C12.0229 21.2127 12.0838 21.8479 11.9642 22.4607C11.8447 23.0735 11.55 23.6362 11.1176 24.0778C10.6852 24.5194 10.1344 24.82 9.53494 24.9416C8.93543 25.0631 8.31413 25.0002 7.74959 24.7608C7.18506 24.5214 6.70264 24.1162 6.36336 23.5964C6.02408 23.0767 5.84317 22.4658 5.8435 21.841C5.8435 21.426 5.9235 21.0151 6.07892 20.6318C6.23434 20.2485 6.46214 19.9003 6.7493 19.607C7.03645 19.3138 7.37732 19.0813 7.75243 18.9228C8.12753 18.7643 8.52952 18.683 8.93539 18.6834ZM8.93539 23.6673C9.28878 23.6676 9.63433 23.5608 9.92833 23.3603C10.2223 23.1599 10.4516 22.8748 10.587 22.5411C10.7225 22.2074 10.7581 21.8401 10.6894 21.4857C10.6206 21.1313 10.4506 20.8057 10.2008 20.5502C9.95108 20.2946 9.63277 20.1204 9.28619 20.0498C8.93962 19.9792 8.58034 20.0153 8.25382 20.1535C7.92729 20.2917 7.64819 20.5257 7.45182 20.8261C7.25545 21.1265 7.15064 21.4797 7.15064 21.841C7.15108 22.3249 7.33921 22.7889 7.67377 23.1313C8.00833 23.4736 8.46203 23.6664 8.93539 23.6673Z" fill="black"/>
<path d="M8.93578 20.1135C9.26988 20.1135 9.59647 20.2148 9.87426 20.4046C10.1521 20.5943 10.3686 20.8641 10.4964 21.1796C10.6243 21.4952 10.6577 21.8424 10.5925 22.1774C10.5274 22.5124 10.3665 22.8201 10.1302 23.0617C9.894 23.3032 9.59301 23.4677 9.26533 23.5343C8.93765 23.6009 8.59801 23.5667 8.28934 23.436C7.98068 23.3053 7.71686 23.084 7.53124 22.8C7.34563 22.516 7.24656 22.1821 7.24656 21.8405C7.24744 21.3828 7.4257 20.944 7.7423 20.6203C8.0589 20.2967 8.48804 20.1144 8.93578 20.1135ZM8.93578 23.3208C9.22215 23.3208 9.50208 23.2339 9.74019 23.0713C9.9783 22.9086 10.1639 22.6775 10.2735 22.407C10.3831 22.1365 10.4117 21.8389 10.3559 21.5517C10.3 21.2646 10.1621 21.0008 9.9596 20.7938C9.75711 20.5868 9.49912 20.4458 9.21825 20.3887C8.93739 20.3316 8.64626 20.3609 8.38169 20.4729C8.11712 20.585 7.89099 20.7747 7.73189 21.0181C7.57279 21.2615 7.48787 21.5477 7.48787 21.8405C7.48787 22.2331 7.64042 22.6096 7.91196 22.8872C8.18349 23.1648 8.55177 23.3208 8.93578 23.3208Z" fill="black"/>
<path d="M8.93561 20.8542C9.12652 20.8542 9.31314 20.912 9.47188 21.0205C9.63062 21.1289 9.75434 21.283 9.8274 21.4634C9.90046 21.6437 9.91958 21.8421 9.88233 22.0335C9.84509 22.2249 9.75315 22.4008 9.61816 22.5388C9.48316 22.6768 9.31117 22.7708 9.12392 22.8089C8.93668 22.847 8.7426 22.8274 8.56622 22.7527C8.38984 22.678 8.23908 22.5515 8.13301 22.3893C8.02695 22.227 7.97034 22.0362 7.97034 21.841C7.97078 21.5794 8.07262 21.3287 8.25355 21.1437C8.43447 20.9587 8.67974 20.8546 8.93561 20.8542Z" fill="black"/>
<path d="M8.9359 20.7393C8.91038 20.7393 8.88543 20.7315 8.86421 20.717C8.84299 20.7025 8.82645 20.6819 8.81668 20.6578C8.80691 20.6337 8.80436 20.6072 8.80934 20.5816C8.81432 20.556 8.82661 20.5325 8.84465 20.5141C8.8627 20.4956 8.88569 20.4831 8.91072 20.478C8.93576 20.4729 8.9617 20.4755 8.98528 20.4855C9.00886 20.4955 9.02902 20.5124 9.0432 20.5341C9.05737 20.5558 9.06494 20.5813 9.06494 20.6074C9.06494 20.6423 9.05135 20.6759 9.02715 20.7006C9.00295 20.7254 8.97013 20.7393 8.9359 20.7393Z" fill="black"/>
<path d="M8.93538 22.9442C8.95345 22.942 8.97175 22.9439 8.98908 22.9495C9.00641 22.9551 9.02239 22.9644 9.03596 22.9768C9.04953 22.9891 9.06038 23.0043 9.06782 23.0213C9.07525 23.0382 9.0791 23.0566 9.0791 23.0752C9.0791 23.0938 9.07525 23.1122 9.06782 23.1292C9.06038 23.1461 9.04953 23.1613 9.03596 23.1737C9.02239 23.186 9.00641 23.1953 8.98908 23.201C8.97175 23.2066 8.95345 23.2084 8.93538 23.2063C8.91731 23.2084 8.89901 23.2066 8.88168 23.201C8.86435 23.1953 8.84837 23.186 8.8348 23.1737C8.82123 23.1613 8.81037 23.1461 8.80294 23.1292C8.7955 23.1122 8.79166 23.0938 8.79166 23.0752C8.79166 23.0566 8.7955 23.0382 8.80294 23.0213C8.81037 23.0043 8.82123 22.9891 8.8348 22.9768C8.84837 22.9644 8.86435 22.9551 8.88168 22.9495C8.89901 22.9439 8.91731 22.942 8.93538 22.9442Z" fill="black"/>
<path d="M9.69808 21.0631C9.68006 21.0447 9.6678 21.0212 9.66284 20.9956C9.65788 20.97 9.66045 20.9435 9.67023 20.9194C9.68 20.8953 9.69654 20.8747 9.71775 20.8602C9.73897 20.8457 9.76391 20.838 9.78942 20.838C9.81493 20.838 9.83986 20.8457 9.86108 20.8602C9.88229 20.8747 9.89884 20.8953 9.90861 20.9194C9.91838 20.9435 9.92095 20.97 9.916 20.9956C9.91104 21.0212 9.89877 21.0447 9.88075 21.0631C9.86876 21.0754 9.85453 21.0852 9.83885 21.0918C9.82318 21.0984 9.80639 21.1019 9.78942 21.1019C9.77245 21.1019 9.75565 21.0984 9.73998 21.0918C9.72431 21.0852 9.71007 21.0754 9.69808 21.0631Z" fill="black"/>
<path d="M8.1747 22.6149C8.19272 22.6333 8.20498 22.6568 8.20994 22.6824C8.2149 22.708 8.21233 22.7345 8.20256 22.7586C8.19278 22.7827 8.17625 22.8033 8.15503 22.8178C8.13382 22.8323 8.10888 22.84 8.08337 22.84C8.05786 22.84 8.03293 22.8323 8.01172 22.8178C7.9905 22.8033 7.97396 22.7827 7.96419 22.7586C7.95441 22.7345 7.95184 22.708 7.9568 22.6824C7.96176 22.6568 7.97403 22.6333 7.99205 22.6149C8.00403 22.6026 8.01827 22.5929 8.03394 22.5862C8.04961 22.5796 8.06641 22.5761 8.08337 22.5761C8.10034 22.5761 8.11714 22.5796 8.13281 22.5862C8.14848 22.5929 8.16272 22.6026 8.1747 22.6149Z" fill="black"/>
<path d="M10.1424 21.7088C10.168 21.7088 10.1929 21.7166 10.2141 21.7311C10.2354 21.7456 10.2519 21.7662 10.2617 21.7903C10.2714 21.8144 10.274 21.8409 10.269 21.8665C10.264 21.8921 10.2517 21.9156 10.2337 21.934C10.2156 21.9525 10.1927 21.9651 10.1676 21.9701C10.1426 21.9752 10.1167 21.9726 10.0931 21.9626C10.0695 21.9527 10.0493 21.9357 10.0352 21.914C10.021 21.8924 10.0134 21.8668 10.0134 21.8408C10.0134 21.8058 10.027 21.7722 10.0512 21.7475C10.0754 21.7227 10.1082 21.7088 10.1424 21.7088Z" fill="black"/>
<path d="M7.72888 21.9727C7.70336 21.9727 7.67841 21.9649 7.65719 21.9504C7.63597 21.9359 7.61943 21.9153 7.60966 21.8912C7.59989 21.8671 7.59734 21.8406 7.60232 21.815C7.6073 21.7894 7.61959 21.7659 7.63764 21.7475C7.65568 21.729 7.67867 21.7165 7.7037 21.7114C7.72874 21.7063 7.75468 21.7089 7.77826 21.7189C7.80184 21.7289 7.82199 21.7458 7.83616 21.7675C7.85034 21.7892 7.85791 21.8147 7.85791 21.8408C7.85791 21.8757 7.84432 21.9093 7.82012 21.934C7.79592 21.9588 7.7631 21.9727 7.72888 21.9727Z" fill="black"/>
<path d="M9.78845 22.8449C9.71718 22.8449 9.6594 22.7858 9.6594 22.7129C9.6594 22.6401 9.71718 22.581 9.78845 22.581C9.85971 22.581 9.91748 22.6401 9.91748 22.7129C9.91748 22.7858 9.85971 22.8449 9.78845 22.8449Z" fill="black"/>
<path d="M8.1747 20.8761C8.19272 20.8946 8.20498 20.9181 8.20994 20.9437C8.2149 20.9693 8.21233 20.9958 8.20256 21.0199C8.19278 21.044 8.17625 21.0645 8.15503 21.079C8.13382 21.0935 8.10888 21.1012 8.08337 21.1012C8.05786 21.1012 8.03293 21.0935 8.01172 21.079C7.9905 21.0645 7.97396 21.044 7.96419 21.0199C7.95441 20.9958 7.95184 20.9693 7.9568 20.9437C7.96176 20.9181 7.97403 20.8946 7.99205 20.8761C8.00403 20.8639 8.01827 20.8541 8.03394 20.8475C8.04961 20.8408 8.06641 20.8374 8.08337 20.8374C8.10034 20.8374 8.11714 20.8408 8.13281 20.8475C8.14848 20.8541 8.16272 20.8639 8.1747 20.8761Z" fill="black"/>
<path d="M17.286 18.6834C17.8974 18.6831 18.4951 18.8681 19.0035 19.2151C19.5119 19.5621 19.9083 20.0555 20.1424 20.6329C20.3765 21.2102 20.4378 21.8456 20.3186 22.4586C20.1994 23.0716 19.9051 23.6347 19.4728 24.0766C19.0406 24.5186 18.4898 24.8195 17.8902 24.9413C17.2906 25.0632 16.6691 25.0005 16.1044 24.7611C15.5396 24.5218 15.057 24.1166 14.7176 23.5968C14.3782 23.077 14.1972 22.466 14.1975 21.841C14.1975 21.0035 14.5229 20.2004 15.1021 19.6082C15.6813 19.0161 16.4669 18.6834 17.286 18.6834ZM17.286 23.6673C17.6394 23.6673 17.9848 23.5602 18.2785 23.3595C18.5723 23.1588 18.8013 22.8736 18.9365 22.5399C19.0717 22.2062 19.1071 21.8389 19.0381 21.4847C18.9692 21.1304 18.7991 20.805 18.5492 20.5495C18.2994 20.2941 17.9811 20.1202 17.6346 20.0497C17.288 19.9792 16.9288 20.0154 16.6024 20.1536C16.276 20.2919 15.997 20.526 15.8007 20.8263C15.6044 21.1266 15.4996 21.4797 15.4996 21.841C15.5001 22.3252 15.6884 22.7895 16.0233 23.1319C16.3583 23.4743 16.8124 23.6669 17.286 23.6673Z" fill="black"/>
<path d="M17.2859 20.1135C17.62 20.1135 17.9466 20.2148 18.2244 20.4046C18.5021 20.5943 18.7187 20.8641 18.8465 21.1796C18.9744 21.4952 19.0078 21.8424 18.9426 22.1774C18.8775 22.5124 18.7166 22.8201 18.4803 23.0617C18.2441 23.3032 17.9431 23.4677 17.6154 23.5343C17.2877 23.6009 16.9481 23.5667 16.6394 23.436C16.3308 23.3053 16.0669 23.084 15.8813 22.8C15.6957 22.516 15.5966 22.1821 15.5966 21.8405C15.5975 21.3828 15.7758 20.944 16.0924 20.6203C16.409 20.2967 16.8381 20.1144 17.2859 20.1135ZM17.2859 23.3208C17.5722 23.3208 17.8522 23.2339 18.0903 23.0713C18.3284 22.9086 18.514 22.6775 18.6236 22.407C18.7332 22.1365 18.7618 21.8389 18.706 21.5517C18.6501 21.2646 18.5122 21.0008 18.3097 20.7938C18.1072 20.5868 17.8492 20.4458 17.5683 20.3887C17.2875 20.3316 16.9963 20.3609 16.7318 20.4729C16.4672 20.585 16.2411 20.7747 16.082 21.0181C15.9229 21.2615 15.838 21.5477 15.838 21.8405C15.8384 22.233 15.9911 22.6092 16.2625 22.8867C16.534 23.1642 16.902 23.3203 17.2859 23.3208Z" fill="black"/>
<path d="M17.2857 20.8542C17.4766 20.8542 17.6632 20.912 17.822 21.0205C17.9807 21.1289 18.1044 21.283 18.1775 21.4634C18.2506 21.6437 18.2697 21.8421 18.2324 22.0335C18.1952 22.2249 18.1033 22.4008 17.9683 22.5388C17.8333 22.6768 17.6613 22.7708 17.474 22.8089C17.2868 22.847 17.0927 22.8274 16.9163 22.7527C16.7399 22.678 16.5892 22.5515 16.4831 22.3893C16.3771 22.227 16.3204 22.0362 16.3204 21.841C16.3209 21.5794 16.4227 21.3287 16.6037 21.1437C16.7846 20.9587 17.0298 20.8546 17.2857 20.8542Z" fill="black"/>
<path d="M17.286 20.7393C17.2518 20.7393 17.219 20.7254 17.1948 20.7006C17.1706 20.6759 17.157 20.6423 17.157 20.6074C17.157 20.5724 17.1706 20.5388 17.1948 20.5141C17.219 20.4893 17.2518 20.4754 17.286 20.4754C17.3202 20.4754 17.353 20.4893 17.3772 20.5141C17.4014 20.5388 17.415 20.5724 17.415 20.6074C17.415 20.6423 17.4014 20.6759 17.3772 20.7006C17.353 20.7254 17.3202 20.7393 17.286 20.7393Z" fill="black"/>
<path d="M17.286 22.944C17.3116 22.944 17.3366 22.9518 17.3579 22.9663C17.3791 22.9809 17.3957 23.0016 17.4054 23.0258C17.4151 23.05 17.4176 23.0766 17.4124 23.1023C17.4073 23.1279 17.3949 23.1514 17.3766 23.1698C17.3584 23.1882 17.3353 23.2006 17.3101 23.2055C17.285 23.2104 17.259 23.2075 17.2355 23.1973C17.2119 23.187 17.1919 23.1698 17.1779 23.1479C17.1639 23.126 17.1566 23.1003 17.157 23.0742C17.1574 23.0395 17.1712 23.0064 17.1954 22.982C17.2195 22.9576 17.2521 22.944 17.286 22.944Z" fill="black"/>
<path d="M18.0469 21.0629C18.0234 21.0377 18.0104 21.0043 18.0104 20.9695C18.0104 20.9347 18.0234 20.9013 18.0469 20.8761C18.065 20.8577 18.0879 20.8452 18.113 20.8401C18.138 20.835 18.1639 20.8377 18.1875 20.8477C18.2111 20.8576 18.2312 20.8746 18.2454 20.8962C18.2595 20.9179 18.2671 20.9434 18.2671 20.9695C18.2671 20.9956 18.2595 21.0211 18.2454 21.0428C18.2312 21.0645 18.2111 21.0814 18.1875 21.0914C18.1639 21.1014 18.138 21.104 18.113 21.0989C18.0879 21.0938 18.065 21.0813 18.0469 21.0629Z" fill="black"/>
<path d="M16.5238 22.6149C16.5418 22.6333 16.5541 22.6568 16.5591 22.6824C16.564 22.708 16.5615 22.7345 16.5517 22.7586C16.5419 22.7827 16.5254 22.8033 16.5042 22.8178C16.4829 22.8323 16.458 22.84 16.4325 22.84C16.407 22.84 16.382 22.8323 16.3608 22.8178C16.3396 22.8033 16.3231 22.7827 16.3133 22.7586C16.3035 22.7345 16.301 22.708 16.3059 22.6824C16.3109 22.6568 16.3231 22.6333 16.3412 22.6149C16.3531 22.6026 16.3674 22.5929 16.383 22.5862C16.3987 22.5796 16.4155 22.5761 16.4325 22.5761C16.4495 22.5761 16.4663 22.5796 16.4819 22.5862C16.4976 22.5929 16.5118 22.6026 16.5238 22.6149Z" fill="black"/>
<path d="M18.4925 21.7088C18.5268 21.7088 18.5596 21.7227 18.5838 21.7475C18.608 21.7722 18.6216 21.8058 18.6216 21.8408C18.6216 21.8757 18.608 21.9093 18.5838 21.934C18.5596 21.9588 18.5268 21.9727 18.4925 21.9727C18.4583 21.9727 18.4255 21.9588 18.4013 21.934C18.3771 21.9093 18.3635 21.8757 18.3635 21.8408C18.3635 21.8058 18.3771 21.7722 18.4013 21.7475C18.4255 21.7227 18.4583 21.7088 18.4925 21.7088Z" fill="black"/>
<path d="M16.0799 21.9727C16.0457 21.9727 16.0129 21.9588 15.9887 21.934C15.9645 21.9093 15.9509 21.8757 15.9509 21.8408C15.9509 21.8058 15.9645 21.7722 15.9887 21.7475C16.0129 21.7227 16.0457 21.7088 16.0799 21.7088C16.1142 21.7088 16.147 21.7227 16.1712 21.7475C16.1954 21.7722 16.209 21.8058 16.209 21.8408C16.209 21.8757 16.1954 21.9093 16.1712 21.934C16.147 21.9588 16.1142 21.9727 16.0799 21.9727Z" fill="black"/>
<path d="M18.139 22.8449C18.0678 22.8449 18.01 22.7858 18.01 22.7129C18.01 22.6401 18.0678 22.581 18.139 22.581C18.2103 22.581 18.2681 22.6401 18.2681 22.7129C18.2681 22.7858 18.2103 22.8449 18.139 22.8449Z" fill="black"/>
<path d="M16.5238 20.8761C16.5418 20.8946 16.5541 20.9181 16.5591 20.9437C16.564 20.9693 16.5615 20.9958 16.5517 21.0199C16.5419 21.044 16.5254 21.0645 16.5042 21.079C16.4829 21.0935 16.458 21.1012 16.4325 21.1012C16.407 21.1012 16.382 21.0935 16.3608 21.079C16.3396 21.0645 16.3231 21.044 16.3133 21.0199C16.3035 20.9958 16.301 20.9693 16.3059 20.9437C16.3109 20.9181 16.3231 20.8946 16.3412 20.8761C16.3531 20.8639 16.3674 20.8541 16.383 20.8475C16.3987 20.8408 16.4155 20.8374 16.4325 20.8374C16.4495 20.8374 16.4663 20.8408 16.4819 20.8475C16.4976 20.8541 16.5118 20.8639 16.5238 20.8761Z" fill="black"/>
<path d="M2.51406 17.6826C2.55851 17.6826 2.60113 17.7006 2.63256 17.7328C2.66398 17.7649 2.68164 17.8085 2.68164 17.8539V19.5312C2.68164 19.5766 2.66398 19.6202 2.63256 19.6523C2.60113 19.6845 2.55851 19.7025 2.51406 19.7025C2.46962 19.7025 2.42699 19.6845 2.39556 19.6523C2.36413 19.6202 2.34648 19.5766 2.34648 19.5312V17.8608C2.34558 17.8377 2.34925 17.8147 2.35726 17.7931C2.36528 17.7715 2.37748 17.7518 2.39313 17.7352C2.40878 17.7185 2.42756 17.7053 2.44834 17.6963C2.46913 17.6872 2.49148 17.6826 2.51406 17.6826Z" fill="black"/>
</g>
<defs>
<clipPath id="clip0_1_112">
<rect width="65" height="25" fill="white" transform="matrix(-1 0 0 1 65 0)"/>
</clipPath>
</defs>
</svg>
