<svg width="60" height="30" viewBox="0 0 60 30" fill="none" xmlns="http://www.w3.org/2000/svg">
<path d="M3.3436 21.6455H56.6064C56.7162 21.6442 56.8246 21.6213 56.9255 21.578C57.0264 21.5347 57.1178 21.472 57.1945 21.3934C57.2712 21.3148 57.3317 21.2218 57.3724 21.1199C57.4132 21.0179 57.4335 20.9088 57.4322 20.799V2.49789C57.4335 2.38805 57.4132 2.27901 57.3724 2.17702C57.3317 2.07503 57.2712 1.98207 57.1945 1.90347C57.1178 1.82486 57.0264 1.76213 56.9255 1.71888C56.8246 1.67562 56.7162 1.65268 56.6064 1.65137H3.3436C3.23344 1.65133 3.12439 1.67336 3.02287 1.71614C2.92134 1.75893 2.8294 1.8216 2.75245 1.90049C2.6755 1.97937 2.6151 2.07286 2.57481 2.17546C2.53451 2.27806 2.51514 2.38769 2.51782 2.49789V20.799C2.51649 20.9088 2.5368 21.0179 2.57758 21.1199C2.61836 21.2218 2.67882 21.3148 2.7555 21.3934C2.83218 21.472 2.92359 21.5347 3.02449 21.578C3.1254 21.6213 3.23384 21.6442 3.3436 21.6455Z" fill="black"/>
<path d="M57.4319 14.0674H2.51758V15.277H57.4319V14.0674Z" fill="black"/>
<path d="M36.818 3.87891H23.1523V19.3884H36.818V3.87891Z" fill="black"/>
<path d="M36.3244 4.43457H23.6558V18.8359H36.3244V4.43457Z" fill="black"/>
<path d="M58.1975 0.421875H1.80273V2.32698H58.1975V0.421875Z" fill="black"/>
<path opacity="0.3" d="M57.4319 2.32617H2.51758V3.42489H57.4319V2.32617Z" fill="black"/>
<path d="M58.1975 20.3562H1.80273V21.6767H58.1975V20.3562Z" fill="black"/>
<path d="M37.3211 10.6611H36.0522V11.9614H37.3211V10.6611Z" fill="black"/>
<path d="M36.3244 5.97559H23.6558V7.01382H36.3244V5.97559Z" fill="black"/>
<path d="M36.3244 16.2449H23.6558V17.2831H36.3244V16.2449Z" fill="black"/>
<path d="M54.925 21.645H42.6592V25.9895H54.925V21.645Z" fill="black"/>
<path d="M48.016 25.7274C48.0179 26.4541 47.8048 27.165 47.4034 27.7706C47.0021 28.3761 46.4305 28.8492 45.7608 29.13C45.0911 29.4108 44.3532 29.4868 43.6404 29.3485C42.9276 29.2101 42.2716 28.8636 41.7554 28.3526C41.2391 27.8416 40.8857 27.189 40.7397 26.4772C40.5936 25.7654 40.6615 25.0262 40.9348 24.353C41.2081 23.6797 41.6745 23.1026 42.2752 22.6943C42.8759 22.2861 43.5839 22.065 44.31 22.0591C44.7948 22.0537 45.2758 22.1447 45.7252 22.3266C46.1746 22.5086 46.5835 22.778 46.9281 23.1191C47.2728 23.4603 47.5464 23.8665 47.7331 24.3142C47.9199 24.7619 48.016 25.2423 48.016 25.7274Z" fill="#333333"/>
<path d="M44.3099 28.5396C43.7546 28.5376 43.2124 28.371 42.7516 28.0608C42.2909 27.7507 41.9324 27.3108 41.7212 26.7969C41.5101 26.283 41.4559 25.718 41.5655 25.1732C41.675 24.6285 41.9434 24.1284 42.3367 23.7362C42.7301 23.344 43.2307 23.0772 43.7755 22.9696C44.3202 22.8619 44.8846 22.9181 45.3975 23.1312C45.9103 23.3443 46.3485 23.7047 46.6568 24.1669C46.9651 24.629 47.1296 25.1722 47.1296 25.7279C47.1269 26.4745 46.8287 27.1897 46.3002 27.7167C45.7717 28.2436 45.056 28.5396 44.3099 28.5396ZM44.3099 23.2992C43.8298 23.2992 43.3606 23.4416 42.9615 23.7085C42.5624 23.9754 42.2513 24.3547 42.0676 24.7985C41.8839 25.2423 41.8359 25.7306 41.9295 26.2017C42.0231 26.6728 42.2543 27.1056 42.5937 27.4453C42.9331 27.7849 43.3656 28.0162 43.8364 28.1099C44.3072 28.2036 44.7952 28.1556 45.2386 27.9717C45.6821 27.7879 46.0612 27.4766 46.3278 27.0772C46.5945 26.6778 46.7369 26.2082 46.7369 25.7279C46.7369 25.0838 46.4812 24.466 46.026 24.0105C45.5709 23.5551 44.9535 23.2992 44.3099 23.2992Z" fill="black"/>
<path d="M45.3671 25.7275C45.3671 25.9948 45.261 26.2512 45.0722 26.4402C44.8833 26.6293 44.6272 26.7355 44.3601 26.7355C44.093 26.7355 43.8368 26.6293 43.648 26.4402C43.4591 26.2512 43.353 25.9948 43.353 25.7275C43.353 25.4601 43.4591 25.2038 43.648 25.0147C43.8368 24.8257 44.093 24.7195 44.3601 24.7195C44.6272 24.7195 44.8833 24.8257 45.0722 25.0147C45.261 25.2038 45.3671 25.4601 45.3671 25.7275Z" fill="black"/>
<path d="M56.8885 25.7272C56.8905 26.4552 56.6766 27.1674 56.274 27.7736C55.8713 28.3799 55.2979 28.8529 54.6264 29.1329C53.955 29.4128 53.2156 29.4871 52.5019 29.3463C51.7882 29.2055 51.1323 28.856 50.6173 28.3419C50.1022 27.8279 49.7511 27.1725 49.6085 26.4587C49.4658 25.7448 49.538 25.0047 49.8159 24.332C50.0938 23.6592 50.565 23.0841 51.1697 22.6795C51.7743 22.2748 52.4854 22.0588 53.2128 22.0588C54.1859 22.0588 55.1193 22.445 55.8084 23.1327C56.4974 23.8203 56.8859 24.7534 56.8885 25.7272Z" fill="#333333"/>
<path d="M53.212 28.5396C52.6563 28.5396 52.1131 28.3747 51.651 28.0657C51.189 27.7568 50.8289 27.3176 50.6162 26.8039C50.4036 26.2901 50.3479 25.7248 50.4563 25.1794C50.5647 24.634 50.8323 24.133 51.2253 23.7398C51.6182 23.3466 52.1188 23.0788 52.6639 22.9703C53.2089 22.8618 53.7738 22.9175 54.2872 23.1303C54.8006 23.3431 55.2394 23.7035 55.5482 24.1658C55.8569 24.6282 56.0217 25.1718 56.0217 25.7279C56.0217 26.4736 55.7256 27.1888 55.1987 27.716C54.6718 28.2433 53.9572 28.5396 53.212 28.5396ZM53.212 23.2992C52.732 23.2992 52.2628 23.4416 51.8636 23.7085C51.4645 23.9754 51.1535 24.3547 50.9698 24.7985C50.7861 25.2423 50.738 25.7306 50.8317 26.2017C50.9253 26.6728 51.1565 27.1056 51.4959 27.4453C51.8353 27.7849 52.2677 28.0162 52.7385 28.1099C53.2093 28.2036 53.6973 28.1556 54.1408 27.9717C54.5842 27.7879 54.9633 27.4766 55.23 27.0772C55.4966 26.6778 55.639 26.2083 55.639 25.7279C55.639 25.0838 55.3833 24.466 54.9281 24.0106C54.473 23.5551 53.8557 23.2992 53.212 23.2992Z" fill="black"/>
<path d="M54.2402 25.7275C54.2402 25.9268 54.1811 26.1217 54.0705 26.2875C53.9598 26.4533 53.8025 26.5824 53.6185 26.6587C53.4345 26.735 53.232 26.755 53.0367 26.7161C52.8413 26.6772 52.6619 26.5812 52.521 26.4402C52.3802 26.2993 52.2843 26.1197 52.2454 25.9241C52.2066 25.7286 52.2265 25.5259 52.3027 25.3417C52.379 25.1575 52.508 25.0001 52.6736 24.8894C52.8392 24.7786 53.0339 24.7195 53.2331 24.7195C53.5002 24.7195 53.7564 24.8257 53.9452 25.0147C54.1341 25.2038 54.2402 25.4601 54.2402 25.7275Z" fill="black"/>
<path d="M18.1565 21.645H5.89062V25.9895H18.1565V21.645Z" fill="black"/>
<path d="M7.57289 29.3955C9.59738 29.3955 11.2386 27.7531 11.2386 25.7272C11.2386 23.7012 9.59738 22.0588 7.57289 22.0588C5.5484 22.0588 3.90723 23.7012 3.90723 25.7272C3.90723 27.7531 5.5484 29.3955 7.57289 29.3955Z" fill="#333333"/>
<path d="M7.57303 28.5395C7.01776 28.5375 6.47554 28.3709 6.01482 28.0608C5.5541 27.7506 5.19555 27.3108 4.98443 26.7969C4.77332 26.283 4.71911 25.718 4.82866 25.1732C4.93821 24.6285 5.20659 24.1284 5.59993 23.7362C5.99326 23.344 6.49391 23.0772 7.03866 22.9696C7.5834 22.8619 8.14781 22.9181 8.66062 23.1312C9.17344 23.3443 9.61165 23.7047 9.91994 24.1669C10.2282 24.629 10.3928 25.1722 10.3928 25.7279C10.3928 26.098 10.3198 26.4644 10.1779 26.8062C10.0361 27.148 9.82824 27.4584 9.56627 27.7196C9.3043 27.9808 8.99338 28.1877 8.65133 28.3284C8.30929 28.4691 7.94285 28.5409 7.57303 28.5395ZM7.57303 23.2992C7.09302 23.2992 6.62378 23.4416 6.22467 23.7085C5.82555 23.9754 5.51448 24.3547 5.33079 24.7985C5.1471 25.2423 5.09903 25.7306 5.19268 26.2017C5.28633 26.6728 5.51747 27.1056 5.85689 27.4452C6.19631 27.7849 6.62876 28.0162 7.09955 28.1099C7.57034 28.2036 8.05832 28.1555 8.5018 27.9717C8.94527 27.7879 9.32431 27.4766 9.59099 27.0772C9.85767 26.6778 10 26.2082 10 25.7279C10 25.0838 9.74431 24.466 9.28917 24.0105C8.83402 23.5551 8.21671 23.2992 7.57303 23.2992Z" fill="black"/>
<path d="M7.57309 26.7555C8.14039 26.7555 8.60028 26.2952 8.60028 25.7274C8.60028 25.1595 8.14039 24.6992 7.57309 24.6992C7.00579 24.6992 6.5459 25.1595 6.5459 25.7274C6.5459 26.2952 7.00579 26.7555 7.57309 26.7555Z" fill="black"/>
<path d="M16.4455 29.3955C18.4699 29.3955 20.1111 27.7531 20.1111 25.7272C20.1111 23.7012 18.4699 22.0588 16.4455 22.0588C14.421 22.0588 12.7798 23.7012 12.7798 25.7272C12.7798 27.7531 14.421 29.3955 16.4455 29.3955Z" fill="#333333"/>
<path d="M16.4449 28.5396C15.8892 28.5396 15.346 28.3747 14.884 28.0657C14.4219 27.7568 14.0618 27.3176 13.8491 26.8039C13.6365 26.2901 13.5808 25.7248 13.6892 25.1794C13.7977 24.634 14.0652 24.133 14.4582 23.7398C14.8511 23.3466 15.3518 23.0788 15.8968 22.9703C16.4418 22.8618 17.0067 22.9175 17.5201 23.1303C18.0335 23.3431 18.4724 23.7035 18.7811 24.1658C19.0898 24.6282 19.2546 25.1718 19.2546 25.7279C19.2546 26.4736 18.9586 27.1888 18.4317 27.716C17.9048 28.2433 17.1901 28.5396 16.4449 28.5396ZM16.4449 23.2992C15.9649 23.2992 15.4957 23.4416 15.0966 23.7085C14.6974 23.9754 14.3864 24.3547 14.2027 24.7985C14.019 25.2423 13.9709 25.7306 14.0646 26.2017C14.1582 26.6728 14.3894 27.1056 14.7288 27.4453C15.0682 27.7849 15.5007 28.0162 15.9714 28.1099C16.4422 28.2036 16.9302 28.1556 17.3737 27.9717C17.8172 27.7879 18.1962 27.4766 18.4629 27.0772C18.7296 26.6778 18.8719 26.2083 18.8719 25.7279C18.8719 25.0838 18.6162 24.466 18.1611 24.0106C17.7059 23.5551 17.0886 23.2992 16.4449 23.2992Z" fill="black"/>
<path d="M16.4447 26.7555C17.012 26.7555 17.4719 26.2952 17.4719 25.7274C17.4719 25.1595 17.012 24.6992 16.4447 24.6992C15.8774 24.6992 15.4175 25.1595 15.4175 25.7274C15.4175 26.2952 15.8774 26.7555 16.4447 26.7555Z" fill="black"/>
<path d="M1.80262 20.5068H0V21.535H1.80262V20.5068Z" fill="black"/>
<path d="M59.9999 20.4666H58.1973V21.4947H59.9999V20.4666Z" fill="black"/>
<rect x="7.04932" y="4.45337" width="1.00705" height="14.1089" rx="0.503525" fill="#F8F8F8"/>
<rect x="11.0771" y="4.45337" width="1.00705" height="14.1089" rx="0.503525" fill="#F8F8F8"/>
<rect x="15.1055" y="4.45337" width="1.00705" height="14.1089" rx="0.503525" fill="#F8F8F8"/>
<rect x="19.1333" y="4.45337" width="1.00705" height="14.1089" rx="0.503525" fill="#F8F8F8"/>
<rect x="23.1616" y="4.45337" width="1.00705" height="14.1089" rx="0.503525" fill="#F8F8F8"/>
<rect x="27.1899" y="4.45337" width="1.00705" height="14.1089" rx="0.503525" fill="#F8F8F8"/>
<rect x="31.2178" y="4.45337" width="1.00705" height="14.1089" rx="0.503525" fill="#F8F8F8"/>
<rect x="39.2744" y="4.45337" width="1.00705" height="14.1089" rx="0.503525" fill="#F8F8F8"/>
<rect x="47.3306" y="4.45337" width="1.00705" height="14.1089" rx="0.503525" fill="#F8F8F8"/>
<rect x="35.2461" y="4.45337" width="1.00705" height="14.1089" rx="0.503525" fill="#F8F8F8"/>
<rect x="43.3027" y="4.45337" width="1.00705" height="14.1089" rx="0.503525" fill="#F8F8F8"/>
<rect x="51.3589" y="4.45337" width="1.00705" height="14.1089" rx="0.503525" fill="#F8F8F8"/>
</svg>
